#!OML:ASF F:\VICON\USERDATA\INSTALL\rory3\rory3.ASF
:FULLY-SPECIFIED
:DEGREES
106
root -3.50241 16.1179 42.1236 -165.035 -5.82011 -177.409
lowerback -3.38641 2.85534 4.52521
upperback -5.20106 3.44298 0.234116
thorax -3.2141 1.42106 -2.25194
lowerneck -13.5356 -5.30751 -9.69686
upperneck 32.904 -10.5835 6.7686
head 14.4498 -5.87819 2.4265
rclavicle -3.79679e-014 -9.93923e-015
rhumerus -15.0249 -2.52641 -66.7453
rradius 29.7484
rwrist 10.6652
rhand -20.8664 -64.1595
rfingers 7.12502
rthumb 5.50337 -265.932
lclavicle -3.79679e-014 -9.93923e-015
lhumerus -50.4742 9.82938 61.9734
lradius 29.1356
lwrist 9.18348
lhand -31.3247 -29.6832
lfingers 7.12502
lthumb -4.59672 0.24695
rfemur -49.5441 1.83246 22.8646
rtibia 71.0591
rfoot -14.8778 -20.0685
rtoes -11.8337
lfemur -31.1297 -5.62116 -21.5329
ltibia 47.2988
lfoot -31.1676 13.0821
ltoes 10.4527
107
root -3.521 16.1213 42.0869 -165.026 -5.92034 -177.375
lowerback -2.92605 2.80891 4.79412
upperback -5.34225 3.40495 0.229665
thorax -3.6091 1.37752 -2.43197
lowerneck -13.1085 -5.25362 -9.83016
upperneck 32.8869 -10.5849 6.82815
head 14.3583 -5.9181 2.48492
rclavicle 5.00689e-015 3.97569e-016
rhumerus -14.544 -1.98726 -66.1484
rradius 30.192
rwrist 9.67278
rhand -20.7737 -65.7694
rfingers 7.12502
rthumb 5.59282 -264.324
lclavicle 5.00689e-015 3.97569e-016
lhumerus -51.3779 9.66929 60.8633
lradius 28.9847
lwrist 10.1054
lhand -31.0536 -30.799
lfingers 7.12502
lthumb -4.3349 -0.863359
rfemur -50.5535 1.23654 23.1752
rtibia 71.8325
rfoot -14.9308 -20.4161
rtoes -9.76509
lfemur -30.86 -5.52182 -21.5706
ltibia 46.9913
lfoot -31.0961 13.1715
ltoes 10.162
108
root -3.54012 16.1282 42.0442 -165.041 -5.95476 -177.334
lowerback -2.40716 3.13813 5.2718
upperback -5.90152 3.84538 -0.13738
thorax -4.4035 1.51986 -3.11614
lowerneck -11.1057 -5.20046 -9.6515
upperneck 32.6025 -11.0731 7.19907
head 13.852 -6.1934 2.57839
rclavicle -1.81018e-014 -1.55052e-014
rhumerus -15.4504 -2.112 -65.4535
rradius 30.7936
rwrist 8.86776
rhand -21.3701 -65.7078
rfingers 7.12502
rthumb 5.01701 -264.372
lclavicle -1.81018e-014 -1.55052e-014
lhumerus -52.4581 7.82367 59.9667
lradius 29.0222
lwrist 11.4397
lhand -30.8664 -31.4673
lfingers 7.12502
lthumb -4.15408 -1.52811
rfemur -51.5432 0.817429 23.4789
rtibia 72.4382
rfoot -13.5137 -20.5114
rtoes -9.67769
lfemur -30.5243 -5.44587 -21.611
ltibia 46.6976
lfoot -30.928 13.2771
ltoes 10.2349
109
root -3.56028 16.1402 41.9962 -164.954 -6.05453 -177.313
lowerback -1.81704 2.76875 5.14946
upperback -5.2799 3.44851 0.215249
thorax -4.1483 1.38413 -2.6972
lowerneck -14.2558 -5.42517 -9.70173
upperneck 33.4554 -10.7807 6.70205
head 14.8864 -5.9574 2.33717
rclavicle 9.01985e-015 4.57205e-015
rhumerus -12.7015 -1.50173 -64.8388
rradius 30.8344
rwrist 8.34902
rhand -24.7336 -61.9523
rfingers 7.12502
rthumb 1.76882 -268.075
lclavicle 9.01985e-015 4.57205e-015
lhumerus -52.2066 9.36432 59.1389
lradius 28.9491
lwrist 11.0986
lhand -31.7603 -30.2889
lfingers 7.12502
lthumb -5.01726 -0.368328
rfemur -52.6311 0.336995 23.817
rtibia 72.864
rfoot -11.9104 -20.9703
rtoes -11.0227
lfemur -30.2648 -5.44788 -21.6378
ltibia 46.4125
lfoot -30.82 13.0636
ltoes 11.225
110
root -3.58204 16.154 41.9499 -164.827 -6.25917 -177.298
lowerback -1.47652 2.82166 5.49335
upperback -5.57813 3.53163 0.0905117
thorax -4.62271 1.37962 -3.04238
lowerneck -13.4465 -5.39706 -9.67812
upperneck 33.4089 -10.9648 6.80355
head 14.7056 -6.07691 2.3639
rclavicle 4.45029e-014 7.95139e-015
rhumerus -12.555 -1.50616 -64.1597
rradius 31.7851
rwrist 9.75017
rhand -26.9012 -60.5942
rfingers 7.12502
rthumb -0.324698 -269.426
lclavicle 4.45029e-014 7.95139e-015
lhumerus -52.9933 8.95143 57.8015
lradius 28.6371
lwrist 11.0346
lhand -30.9616 -30.9151
lfingers 7.12502
lthumb -4.24607 -0.977642
rfemur -53.6566 -0.242054 24.1594
rtibia 73.117
rfoot -11.0709 -21.2149
rtoes -11.3702
lfemur -30.0744 -5.44071 -21.6534
ltibia 46.1291
lfoot -30.9698 12.7565
ltoes 11.3194
111
root -3.60677 16.1623 41.9018 -164.743 -6.47592 -177.226
lowerback -1.15798 2.87301 5.93841
upperback -5.74641 3.62293 -0.0401755
thorax -4.94225 1.38432 -3.44744
lowerneck -12.8827 -5.40287 -9.61244
upperneck 33.3401 -11.1805 6.98439
head 14.579 -6.17705 2.40435
rclavicle 1.73937e-016 -2.18663e-015
rhumerus -12.1807 -1.6115 -63.5045
rradius 31.3313
rwrist 8.20985
rhand -27.0357 -48.67
rfingers 7.12502
rthumb -0.454593 -438.649
lclavicle 1.73937e-016 -2.18663e-015
lhumerus -53.5894 8.2608 56.8713
lradius 28.548
lwrist 10.7767
lhand -31.902 -30.3476
lfingers 7.12502
lthumb -5.15411 -0.430256
rfemur -54.5557 -0.79044 24.5322
rtibia 73.2424
rfoot -11.3003 -20.985
rtoes -9.7791
lfemur -29.8733 -5.50483 -21.6282
ltibia 45.8898
lfoot -31.2176 12.7458
ltoes 9.70871
112
root -3.62934 16.1615 41.8504 -164.645 -6.65465 -177.138
lowerback -0.736552 3.21328 6.66835
upperback -6.36948 4.08461 -0.50394
thorax -5.7238 1.50142 -4.38769
lowerneck -10.7888 -5.35874 -9.35755
upperneck 33.0529 -11.7711 7.47181
head 14.0635 -6.48703 2.52135
rclavicle 2.81964e-014 -5.96354e-015
rhumerus -13.2054 -2.10569 -62.8536
rradius 31.7986
rwrist 8.40415
rhand -24.5185 -58.8061
rfingers 7.12502
rthumb 1.97662 -448.777
lclavicle 2.81964e-014 -5.96354e-015
lhumerus -54.3727 6.42924 55.6227
lradius 28.42
lwrist 10.9981
lhand -31.7423 -30.4981
lfingers 7.12502
lthumb -4.99988 -0.577066
rfemur -55.4824 -1.17557 24.896
rtibia 73.2485
rfoot -11.631 -20.7567
rtoes -7.98619
lfemur -29.6984 -5.71011 -21.566
ltibia 45.6958
lfoot -31.5701 12.9106
ltoes 7.58022
113
root -3.64741 16.161 41.8008 -164.526 -6.90559 -177.054
lowerback -0.232025 3.2786 7.0953
upperback -6.60572 4.21757 -0.648235
thorax -6.2161 1.50781 -4.8193
lowerneck -10.4042 -5.45309 -9.3471
upperneck 33.1888 -12.1614 7.67975
head 14.1011 -6.67252 2.54569
rclavicle -2.40405e-014 -8.84592e-015
rhumerus -13.1954 -2.17742 -62.1178
rradius 32.301
rwrist 8.85404
rhand -26.9373 -57.0713
rfingers 7.12502
rthumb -0.359493 -447.051
lclavicle -2.40405e-014 -8.84592e-015
lhumerus -54.7242 6.1089 54.0933
lradius 28.0362
lwrist 10.9142
lhand -30.865 -31.3782
lfingers 7.12502
lthumb -4.15278 -1.43896
rfemur -56.4461 -1.57646 25.2824
rtibia 73.1144
rfoot -11.8948 -20.5741
rtoes -6.5926
lfemur -29.5577 -5.9385 -21.456
ltibia 45.5091
lfoot -32.0161 13.0087
ltoes 5.85169
114
root -3.66566 16.1688 41.7514 -164.461 -7.18613 -176.938
lowerback -4.58941 2.7082 4.73753
upperback -2.85065 3.21045 1.74718
thorax -0.200658 1.46691 -0.709827
lowerneck -14.7565 -6.37811 -10.8134
upperneck 31.9274 -11.199 6.58021
head 14.4259 -6.10335 2.40397
rclavicle -2.96189e-014 -4.29375e-014
rhumerus -5.7393 -0.530335 -59.0742
rradius 32.2651
rwrist 6.94117
rhand -27.6041 -58.713
rfingers 7.12502
rthumb -1.00358 -448.69
lclavicle -2.96189e-014 -4.29375e-014
lhumerus -52.0646 13.1709 54.9649
lradius 27.2223
lwrist 8.83279
lhand -31.2778 -30.4653
lfingers 7.12502
lthumb -4.55142 -0.53424
rfemur -57.2956 -2.05934 25.7364
rtibia 72.7896
rfoot -11.9601 -20.3905
rtoes -6.3657
lfemur -29.3475 -6.11903 -21.3164
ltibia 45.3011
lfoot -31.5194 14.0924
ltoes 7.10237
115
root -3.68596 16.174 41.6947 -164.371 -7.31014 -176.931
lowerback -3.78546 2.89572 4.90792
upperback -3.43841 3.50896 1.63159
thorax -1.22406 1.57308 -0.96357
lowerneck -13.7484 -6.41155 -10.678
upperneck 32.0479 -11.5896 6.59659
head 14.2901 -6.33103 2.34529
rclavicle -4.96962e-015 1.43125e-014
rhumerus -6.42325 -0.0387594 -58.1833
rradius 32.6528
rwrist 6.41065
rhand -28.4167 -56.933
rfingers 7.12502
rthumb -1.78841 -446.905
lclavicle -4.96962e-015 1.43125e-014
lhumerus -53.0401 11.948 53.8713
lradius 27.266
lwrist 9.10178
lhand -30.8898 -30.8917
lfingers 7.12502
lthumb -4.17672 -0.952949
rfemur -58.1004 -2.50169 26.0758
rtibia 72.3109
rfoot -11.5867 -20.2355
rtoes -7.5323
lfemur -29.0805 -6.2264 -21.3539
ltibia 45.0939
lfoot -31.6898 14.2533
ltoes 6.59073
116
root -3.70392 16.174 41.6335 -164.16 -7.46405 -176.976
lowerback -3.86726 3.05578 5.03673
upperback -3.61323 3.70704 1.56615
thorax -1.3367 1.65792 -1.0952
lowerneck -12.6926 -6.43993 -10.7467
upperneck 31.7543 -11.8686 6.85335
head 13.9823 -6.48173 2.44842
rclavicle 3.08116e-015 -1.03368e-014
rhumerus -6.25767 -0.102277 -57.2886
rradius 32.7084
rwrist 6.52557
rhand -28.6069 -55.5249
rfingers 7.12502
rthumb -1.97206 -445.496
lclavicle 3.08116e-015 -1.03368e-014
lhumerus -53.5522 11.3715 52.7099
lradius 27.1882
lwrist 9.33317
lhand -30.5203 -31.6744
lfingers 7.12502
lthumb -3.81986 -1.72887
rfemur -58.9846 -2.91772 26.3857
rtibia 71.7119
rfoot -11.1547 -20.0894
rtoes -8.81209
lfemur -28.9521 -6.22185 -21.4231
ltibia 44.9115
lfoot -31.9527 14.3309
ltoes 5.95993
117
root -3.71686 16.171 41.5754 -163.909 -7.72081 -176.897
lowerback -3.94331 3.04894 5.08195
upperback -3.68682 3.68352 1.65186
thorax -1.37437 1.63913 -1.03112
lowerneck -12.1905 -6.38075 -10.648
upperneck 31.6532 -11.9264 6.92926
head 13.8315 -6.51595 2.471
rclavicle 3.98563e-014 5.24792e-014
rhumerus -5.43603 -0.21056 -56.5923
rradius 32.6677
rwrist 7.36207
rhand -27.6968 -56.7205
rfingers 7.12502
rthumb -1.09304 -446.697
lclavicle 3.98563e-014 5.24792e-014
lhumerus -54.0137 11.3693 51.3798
lradius 27.0262
lwrist 9.3879
lhand -30.4709 -31.9661
lfingers 7.12502
lthumb -3.77225 -2.01973
rfemur -59.839 -3.21235 26.8172
rtibia 70.9903
rfoot -11.0371 -19.9071
rtoes -8.49824
lfemur -28.9761 -6.10532 -21.3062
ltibia 44.7606
lfoot -32.0297 14.082
ltoes 5.72783
118
root -3.73256 16.1673 41.5163 -163.718 -8.03645 -176.898
lowerback -2.89812 3.04329 5.43621
upperback -4.13669 3.75268 1.4754
thorax -2.38856 1.62722 -1.47254
lowerneck -12.3999 -6.41189 -10.336
upperneck 32.1919 -12.17 6.82281
head 14.1113 -6.61986 2.31765
rclavicle -3.37934e-014 -4.6118e-014
rhumerus -4.94809 -0.637774 -56.2125
rradius 32.52
rwrist 8.28289
rhand -27.0108 -58.5703
rfingers 7.12502
rthumb -0.430473 -448.55
lclavicle -3.37934e-014 -4.6118e-014
lhumerus -54.5021 10.824 49.9185
lradius 26.8864
lwrist 9.52783
lhand -30.7454 -31.693
lfingers 7.12502
lthumb -4.03728 -1.75147
rfemur -60.5848 -3.62922 27.1611
rtibia 70.2046
rfoot -10.9291 -19.5525
rtoes -8.7259
lfemur -28.931 -6.1122 -21.2799
ltibia 44.6146
lfoot -32.0722 13.8866
ltoes 5.24952
119
root -3.75152 16.1686 41.4544 -163.55 -8.38563 -177.056
lowerback -3.35344 2.99363 5.19798
upperback -3.65749 3.65972 1.6792
thorax -1.67008 1.6238 -1.09786
lowerneck -12.7149 -6.65405 -10.2368
upperneck 31.9326 -12.3192 6.61283
head 14.0592 -6.64872 2.18397
rclavicle -4.37326e-015 -2.54444e-014
rhumerus -3.43252 -1.06941 -55.2598
rradius 32.3203
rwrist 7.83757
rhand -28.4096 -59.3803
rfingers 7.12502
rthumb -1.78153 -449.353
lclavicle -4.37326e-015 -2.54444e-014
lhumerus -54.2823 11.5528 48.9134
lradius 26.6262
lwrist 9.2408
lhand -30.5096 -31.802
lfingers 7.12502
lthumb -3.80955 -1.85627
rfemur -61.3138 -4.20785 27.3121
rtibia 69.3727
rfoot -10.9887 -18.8933
rtoes -10.3456
lfemur -28.7838 -6.23806 -21.4383
ltibia 44.4113
lfoot -32.0073 13.8042
ltoes 5.00621
